<svg width="62" height="65" viewBox="0 0 62 65" fill="none" xmlns="http://www.w3.org/2000/svg">
<g filter="url(#filter0_d_5120_157)">
<ellipse cx="31" cy="28.5" rx="17" ry="17.9515" fill="white"/>
</g>
<g clip-path="url(#clip0_5120_157)">
<path d="M34.481 21.1082H28.519C26.5786 21.1082 25 22.7751 25 24.8241V31.12C25 33.1689 26.5786 34.8358 28.519 34.8358H34.4811C36.4214 34.8358 38 33.1689 38 31.12V24.8241C38 22.7751 36.4214 21.1082 34.481 21.1082V21.1082ZM37.2379 31.12C37.2379 32.7251 36.0012 34.031 34.481 34.031H28.519C26.9988 34.031 25.7621 32.7251 25.7621 31.12V24.8241C25.7621 23.2189 26.9988 21.913 28.519 21.913H34.4811C36.0012 21.913 37.2379 23.2189 37.2379 24.8241V31.12Z" fill="black"/>
<path d="M31.5 24.2185C29.54 24.2185 27.9454 25.9023 27.9454 27.972C27.9454 30.0417 29.54 31.7255 31.5 31.7255C33.46 31.7255 35.0546 30.0417 35.0546 27.972C35.0546 25.9023 33.46 24.2185 31.5 24.2185V24.2185ZM31.5 30.9208C29.9603 30.9208 28.7075 29.598 28.7075 27.972C28.7075 26.3461 29.9603 25.0232 31.5 25.0232C33.0398 25.0232 34.2925 26.3461 34.2925 27.972C34.2925 29.598 33.0398 30.9208 31.5 30.9208V30.9208Z" fill="black"/>
<path d="M35.1396 22.8854C34.5603 22.8854 34.0892 23.383 34.0892 23.9946C34.0892 24.6062 34.5603 25.1038 35.1396 25.1038C35.7188 25.1038 36.19 24.6062 36.19 23.9946C36.19 23.3829 35.7188 22.8854 35.1396 22.8854ZM35.1396 24.2989C34.9807 24.2989 34.8513 24.1623 34.8513 23.9946C34.8513 23.8267 34.9807 23.6902 35.1396 23.6902C35.2986 23.6902 35.4279 23.8267 35.4279 23.9946C35.4279 24.1623 35.2986 24.2989 35.1396 24.2989Z" fill="black"/>
</g>
<defs>
<filter id="filter0_d_5120_157" x="0" y="0.548508" width="62" height="63.903" filterUnits="userSpaceOnUse" color-interpolation-filters="sRGB">
<feFlood flood-opacity="0" result="BackgroundImageFix"/>
<feColorMatrix in="SourceAlpha" type="matrix" values="0 0 0 0 0 0 0 0 0 0 0 0 0 0 0 0 0 0 127 0" result="hardAlpha"/>
<feOffset dy="4"/>
<feGaussianBlur stdDeviation="7"/>
<feColorMatrix type="matrix" values="0 0 0 0 0 0 0 0 0 0 0 0 0 0 0 0 0 0 0.15 0"/>
<feBlend mode="normal" in2="BackgroundImageFix" result="effect1_dropShadow_5120_157"/>
<feBlend mode="normal" in="SourceGraphic" in2="effect1_dropShadow_5120_157" result="shape"/>
</filter>
<clipPath id="clip0_5120_157">
<rect width="13" height="13.7276" fill="white" transform="translate(25 21.1082)"/>
</clipPath>
</defs>
</svg>
