<svg width="11" height="12" viewBox="0 0 11 12" fill="none" xmlns="http://www.w3.org/2000/svg">
<g clip-path="url(#clip0_5151_453)">
<path d="M8.95884 4.41386L6.45951 4.05062L5.34224 1.78557C5.31173 1.72356 5.26153 1.67336 5.19951 1.64284C5.04398 1.56606 4.85498 1.63004 4.77721 1.78557L3.65995 4.05062L1.16062 4.41386C1.09171 4.4237 1.02871 4.45618 0.980479 4.5054C0.922166 4.56534 0.890034 4.64597 0.891141 4.72959C0.892248 4.8132 0.926506 4.89295 0.986385 4.95132L2.79468 6.71434L2.36746 9.20382C2.35745 9.26173 2.36385 9.32129 2.38596 9.37575C2.40807 9.4302 2.44499 9.47737 2.49255 9.51191C2.5401 9.54645 2.59638 9.56697 2.655 9.57115C2.71362 9.57533 2.77224 9.563 2.82421 9.53556L5.05973 8.36021L7.29524 9.53556C7.35628 9.56804 7.42715 9.57887 7.49507 9.56706C7.66635 9.53753 7.78153 9.37511 7.752 9.20382L7.32478 6.71434L9.13307 4.95132C9.18229 4.90309 9.21478 4.84009 9.22462 4.77118C9.2512 4.59892 9.1311 4.43945 8.95884 4.41386Z" fill="#FEA250"/>
</g>
<defs>
<clipPath id="clip0_5151_453">
<rect width="10.08" height="10.08" fill="white" transform="translate(0.0200195 0.937988)"/>
</clipPath>
</defs>
</svg>
