 <svg width="62" height="65" viewBox="0 0 62 65" fill="none" xmlns="http://www.w3.org/2000/svg">
<g filter="url(#filter0_d_5120_164)">
<ellipse cx="31" cy="28.5" rx="17" ry="17.9515" fill="white"/>
</g>
<g clip-path="url(#clip0_5120_164)">
<path d="M37 24.7716C36.5166 24.9955 36.0014 25.1439 35.4644 25.216C36.0169 24.8677 36.4386 24.3203 36.6368 23.6605C36.1217 23.9848 35.5529 24.2139 34.9468 24.3417C34.4577 23.7918 33.7606 23.4511 33.0001 23.4511C31.5246 23.4511 30.3367 24.7158 30.3367 26.2662C30.3367 26.4892 30.3546 26.7037 30.3984 26.9079C28.1828 26.7938 26.2222 25.6724 24.9051 23.9642C24.6752 24.3855 24.5403 24.8677 24.5403 25.3867C24.5403 26.3614 25.0156 27.2254 25.7241 27.7256C25.2959 27.717 24.8759 27.5857 24.52 27.379C24.52 27.3875 24.52 27.3987 24.52 27.4098C24.52 28.7775 25.4438 29.9134 26.6552 30.1751C26.4383 30.2377 26.2019 30.2678 25.9565 30.2678C25.7859 30.2678 25.6136 30.2575 25.4519 30.2197C25.7972 31.3342 26.7771 32.1536 27.9423 32.1802C27.0355 32.9292 25.8842 33.3805 24.6378 33.3805C24.4193 33.3805 24.2096 33.3702 24 33.3419C25.1806 34.1458 26.5797 34.6048 28.0885 34.6048C32.9927 34.6048 35.674 30.3149 35.674 26.5965C35.674 26.4721 35.6699 26.352 35.6642 26.2327C36.1932 25.8363 36.6376 25.3413 37 24.7716Z" fill="black"/>
</g>
<defs>
<filter id="filter0_d_5120_164" x="0" y="0.548508" width="62" height="63.903" filterUnits="userSpaceOnUse" color-interpolation-filters="sRGB">
<feFlood flood-opacity="0" result="BackgroundImageFix"/>
<feColorMatrix in="SourceAlpha" type="matrix" values="0 0 0 0 0 0 0 0 0 0 0 0 0 0 0 0 0 0 127 0" result="hardAlpha"/>
<feOffset dy="4"/>
<feGaussianBlur stdDeviation="7"/>
<feColorMatrix type="matrix" values="0 0 0 0 0 0 0 0 0 0 0 0 0 0 0 0 0 0 0.15 0"/>
<feBlend mode="normal" in2="BackgroundImageFix" result="effect1_dropShadow_5120_164"/>
<feBlend mode="normal" in="SourceGraphic" in2="effect1_dropShadow_5120_164" result="shape"/>
</filter>
<clipPath id="clip0_5120_164">
<rect width="13" height="13.7276" fill="white" transform="translate(24 22.1642)"/>
</clipPath>
</defs>
</svg>
